<?xml version="1.0" encoding="UTF-8"?>
<svg width="803px" height="330px" viewBox="0 0 803 330" version="1.1" xmlns="http://www.w3.org/2000/svg" xmlns:xlink="http://www.w3.org/1999/xlink">
    <!-- Generator: Sketch 61.2 (89653) - https://sketch.com -->
    <title>docs-banner-lighthouse</title>
    <desc>Created with Sketch.</desc>
    <g id="docs-banner-lighthouse" stroke="none" stroke-width="1" fill="none" fill-rule="evenodd">
        <g id="Group" transform="translate(147.000000, 55.000000)">
            <g id="Fill-in" transform="translate(22.000000, 4.123666)">
                <g id="Stripe-2" transform="translate(27.434485, 74.376334)" fill="#FD5339">
                    <polygon id="Path-2" points="6.98715663 0 6.56551452 24.7562415 57.8629777 0"></polygon>
                    <polygon id="Path-7" points="63.3716514 32 3.35498821 63.3103477 0 94.0850927 12.4177145 94.0850927 63.7760408 63.3103477 63.7760408 36.5"></polygon>
                </g>
                <g id="Top" transform="translate(30.789474, 0.000000)"></g>
            </g>
            <g id="Lights" transform="translate(0.000000, 24.000000)" fill-rule="nonzero">
                <path d="M163.271918,62.0298161 L133.108838,50.3158608 C130.854559,49.4414563 128.270288,50.4446812 127.3373,52.557998 C126.40387,54.6713148 127.474244,57.0944633 129.728082,57.9696963 L159.891162,69.6836516 C162.154718,70.5613698 164.732362,69.5482038 165.6627,67.4415144 C166.59613,65.3277833 165.525756,62.9050491 163.271918,62.0298161 Z" id="Path" fill="#FF9233"></path>
                <path d="M165.6627,2.55809036 C164.729272,0.443961955 162.145005,-0.558426513 159.891171,0.315971031 L129.728138,12.029833 C127.473862,12.9050589 126.403931,15.3281881 127.33736,17.441488 C128.269463,19.5510601 130.849312,20.5604902 133.108889,19.6836074 L163.271922,7.96974545 C165.525756,7.09451949 166.596129,4.67139034 165.6627,2.55809036 Z" id="Path" fill="#FF9233"></path>
                <path d="M152.666667,30 L135.333333,30 C132.940033,30 131,32.0151 131,34.5 C131,36.9849 132.940033,39 135.333333,39 L152.666667,39 C155.059967,39 157,36.9849 157,34.5 C157,32.0151 155.059967,30 152.666667,30 Z" id="Path" fill="#FDB71A"></path>
                <path d="M36.2719179,12.0298386 L6.10883849,0.315916273 C3.85411738,-0.558485779 1.27073002,0.444322069 0.33730022,2.55804716 C-0.596129581,4.67177226 0.474244488,7.09449968 2.72808209,7.96973016 L32.8911615,19.6836525 C35.154276,20.5613682 37.7323623,19.5482051 38.6626998,17.4415216 C39.5961296,15.3277965 38.5257555,12.9050691 36.2719179,12.0298386 Z" id="Path" fill="#FF9233"></path>
                <path d="M38.6626401,52.5578484 C37.7292118,50.4445118 35.1445031,49.4416917 32.8911108,50.3156902 L2.72807788,62.0297555 C0.474243757,62.9049967 -0.596128661,65.3281679 0.3372997,67.4415046 C1.2694028,69.5519417 3.85013563,70.5601466 6.10882906,69.6836628 L36.271862,57.9695975 C38.5261378,57.0943563 39.5960685,54.6711851 38.6626401,52.5578484 Z" id="Path" fill="#FF9233"></path>
                <path d="M30.6666667,30 L13.3333333,30 C10.9400333,30 9,32.0151 9,34.5 C9,36.9849 10.9400333,39 13.3333333,39 L30.6666667,39 C33.0599667,39 35,36.9849 35,34.5 C35,32.0151 33.0599667,30 30.6666667,30 Z" id="Path" fill="#FDB71A"></path>
            </g>
            <rect id="Rectangle" fill="#FF9233" x="83" y="29" width="27" height="30"></rect>
            <rect id="Rectangle" fill="#FDB71A" x="56" y="29" width="27" height="30"></rect>
            <g id="Structure" transform="translate(1.000000, 0.000000)" fill="#002856" fill-rule="nonzero">
                <path d="M81.5,185 C79.016,185 77,187.016 77,189.5 C77,191.984 79.016,194 81.5,194 C83.984,194 86,191.984 86,189.5 C86,187.016 83.984,185 81.5,185 Z" id="Path"></path>
                <path d="M159.684211,212.367188 L146.736842,212.367188 L146.736842,198.123047 C146.736842,190.982848 140.928653,185.173828 133.789474,185.173828 L129.473684,185.173828 L129.473684,180.857422 C129.473684,175.114443 125.714632,170.235178 120.529642,168.544873 C120.169705,164.53191 112.885516,83.2993027 112.538095,79.426623 C117.326463,77.587834 120.842105,72.9287051 120.842105,67.3359375 C120.842105,61.7090703 117.233674,56.9109531 112.210526,55.1291406 L112.210526,34.53125 L116.526316,34.53125 C118.909926,34.53125 120.842105,32.5983633 120.842105,30.2148438 C120.842105,27.8313242 118.909926,25.8984375 116.526316,25.8984375 L111.902811,25.8984375 C109.838137,11.3815 97.3611895,0 82,0 C66.6353579,0 54.1614316,11.3832266 52.0971895,25.8984375 L47.4736842,25.8984375 C45.0900737,25.8984375 43.1578947,27.8313242 43.1578947,30.2148438 C43.1578947,32.5983633 45.0900737,34.53125 47.4736842,34.53125 L51.7894737,34.53125 L51.7894737,55.1218027 C46.8461684,56.8660625 43.1578947,61.6093613 43.1578947,67.3359375 C43.1578947,72.8397871 46.6109579,77.5498496 51.4627684,79.4210117 C51.2935895,81.3055547 43.6399684,166.655582 43.4707895,168.544873 C38.2853684,170.235178 34.5263158,175.114443 34.5263158,180.857422 L34.5263158,185.173828 L30.2105263,185.173828 C23.0713474,185.173828 17.2631579,190.982848 17.2631579,198.123047 L17.2631579,212.367188 L4.31578947,212.367188 C1.93217895,212.367188 0,214.300074 0,216.683594 C0,219.067113 1.93217895,221 4.31578947,221 L159.684211,221 C162.067821,221 164,219.067113 164,216.683594 C164,214.300074 162.067821,212.367188 159.684211,212.367188 Z M82,8.6328125 C92.5521053,8.6328125 101.178937,16.1481074 103.148232,25.8984375 L60.8522,25.8984375 C62.8206316,16.1485391 71.4491895,8.6328125 82,8.6328125 Z M103.578947,34.53125 L103.578947,54.3867187 L86.3157895,54.3867187 L86.3157895,34.53125 L103.578947,34.53125 Z M60.4210526,34.53125 L77.6842105,34.53125 L77.6842105,54.3867187 L60.4210526,54.3867187 L60.4210526,34.53125 Z M56.1052632,63.0195312 L107.894737,63.0195312 C110.274463,63.0195312 112.210526,64.9558711 112.210526,67.3359375 C112.210526,69.7190254 110.277484,71.6523438 107.894737,71.6523438 L56.1052632,71.6523438 C53.7255368,71.6523438 51.7894737,69.7160039 51.7894737,67.3359375 C51.7894737,64.9528496 53.7225158,63.0195312 56.1052632,63.0195312 Z M104.162011,82.6617695 L106.297463,106.475383 L55.4216421,131.917145 L57.7573474,105.869359 L104.162011,82.6617695 Z M58.6636632,95.7637891 L60.0516211,80.2851562 L89.6139158,80.2851562 L58.6636632,95.7637891 Z M107.125663,115.712492 L109.265432,139.575312 L55.0457368,167.908203 L52.1938632,167.908203 L54.5153263,142.02142 L107.125663,115.712492 Z M110.100105,148.879758 L111.806137,167.908203 L73.6856316,167.908203 L110.100105,148.879758 Z M138.105263,212.367187 L25.8947368,212.367187 L25.8947368,198.123047 C25.8947368,195.74298 27.8308,193.806641 30.2105263,193.806641 L64.5555789,193.806641 C66.9391895,193.806641 68.8713684,191.873754 68.8713684,189.490234 C68.8713684,187.106715 66.9391895,185.173828 64.5555789,185.173828 L43.1578947,185.173828 L43.1578947,180.857422 C43.1578947,178.477355 45.0939579,176.541016 47.4736842,176.541016 L56.0962,176.541016 C56.1005158,176.541016 56.1044,176.541879 56.1087158,176.541879 C56.1134632,176.541879 56.1182105,176.541016 56.1229579,176.541016 L116.512505,176.541016 C116.515526,176.541016 116.518547,176.541447 116.521568,176.541447 C116.523726,176.541447 116.526316,176.541016 116.528474,176.541016 C118.907337,176.542311 120.842105,178.478219 120.842105,180.857422 L120.842105,185.173828 L99.4444211,185.173828 C97.0608105,185.173828 95.1286316,187.106715 95.1286316,189.490234 C95.1286316,191.873754 97.0608105,193.806641 99.4444211,193.806641 L133.789474,193.806641 C136.1692,193.806641 138.105263,195.74298 138.105263,198.123047 L138.105263,212.367187 Z" id="Shape"></path>
            </g>
            <text id="stjude.cloud" font-family="StJudeSans-Regular, St Jude Sans" font-size="42" font-weight="normal" fill="#002856">
                <tspan x="265" y="95">stjude.cloud</tspan>
            </text>
            <text id="DOCS" font-family="StJudeSans-Bold, St Jude Sans" font-size="60" font-weight="bold" fill="#FD5339">
                <tspan x="265" y="159">DOCS</tspan>
            </text>
        </g>
    </g>
</svg>